<?xml version="1.0" encoding="UTF-8"?><svg id="_레이어_1" xmlns="http://www.w3.org/2000/svg" xmlns:xlink="http://www.w3.org/1999/xlink" viewBox="0 0 300 380"><defs><clipPath id="clippath"><rect width="300" height="380" style="fill:none;"/></clipPath><clipPath id="clippath-1"><rect x="10" y="351" width="280" height="15" style="fill:none;"/></clipPath><clipPath id="clippath-2"><rect x="10" y="8" width="280" height="25" style="fill:none;"/></clipPath></defs><g style="clip-path:url(#clippath);"><rect y="40" width="300" height="300" style="fill:#eee;"/><path d="M0,340h300v25c0,8.28-6.72,15-15,15H15c-8.28,0-15-6.72-15-15v-25Z" style="fill:#fff;"/><path d="M0,15C0,6.72,6.72,0,15,0h270c8.28,0,15,6.72,15,15v25H0V15Z" style="fill:#fff;"/><g style="clip-path:url(#clippath-1);"><path d="M277.91,351h11.17c.25,0,.48.11.65.28.17.17.27.41.27.67v13.36c0,.38-.3.69-.67.69-.2,0-.38-.09-.5-.23l-5.31-5.08-5.39,5.13c-.27.26-.7.24-.95-.04-.11-.13-.18-.29-.18-.47v-13.36c0-.26.1-.49.27-.67h0c.17-.17.4-.28.64-.28ZM288.66,352.39h-10.32v11.34l4.72-4.49c.26-.24.65-.24.91,0l4.69,4.49v-11.33Z"/><path d="M48.31,351c1.28,0,2.54.33,3.65.95,1.12.62,2.06,1.52,2.73,2.61.67,1.09,1.05,2.33,1.11,3.61.06,1.28-.22,2.55-.79,3.69l.79,3.14c.03.12.03.25,0,.37-.03.12-.1.23-.19.31-.09.09-.2.15-.32.18-.12.03-.25.03-.37,0l-2.92-.82c-1,.56-2.11.89-3.26.95-1.14.06-2.29-.14-3.34-.59s-1.99-1.13-2.74-2c-.75-.87-1.29-1.89-1.58-3-.29-1.11-.32-2.27-.1-3.39.23-1.12.71-2.18,1.41-3.09.7-.91,1.6-1.64,2.62-2.15,1.03-.51,2.16-.77,3.3-.77ZM52.6,354.2c-.81-.81-1.83-1.37-2.94-1.63-1.11-.26-2.28-.19-3.36.18-1.08.38-2.03,1.05-2.74,1.94-.71.89-1.16,1.97-1.3,3.1-.13,1.14.06,2.28.55,3.32.49,1.03,1.26,1.9,2.23,2.52.96.61,2.08.94,3.22.95,1.14,0,2.26-.31,3.23-.91.08-.06.18-.09.28-.11.1-.02.2-.01.3.02l2.03.58-.55-2.2c-.05-.18-.03-.37.06-.53.25-.45.44-.92.56-1.41.26-1.02.25-2.1-.03-3.12-.28-1.02-.82-1.95-1.56-2.7h0Z"/><path d="M25.21,354.85c-.33-.88-.93-1.56-1.65-1.99-.44-.26-.93-.43-1.43-.49-.49-.06-.99,0-1.45.18-1.23.47-1.66,1.38-2.19,2.43-.11.23-.06.23-.19,0-.58-1.01-1.11-2.09-2.3-2.49-.42-.14-.87-.18-1.32-.13-.45.05-.91.2-1.32.42-.82.44-1.51,1.19-1.82,2.13-1.04,3.13,2.74,6.19,5.6,8.51.43.35.83.67,1.21.99.51-.44,1.06-.88,1.64-1.34,2.89-2.29,6.42-5.09,5.22-8.24ZM24.25,351.7c.97.58,1.78,1.5,2.22,2.67,1.54,4.07-2.41,7.21-5.65,9.77-.75.6-1.46,1.16-2.01,1.66-.25.25-.65.26-.92.02-.46-.4-1.02-.86-1.62-1.35-3.17-2.57-7.36-5.96-6.03-9.98.43-1.29,1.35-2.3,2.47-2.9.57-.3,1.18-.5,1.81-.57.64-.07,1.28-.02,1.89.18.72.24,1.4.68,1.96,1.36.54-.61,1.16-1.03,1.83-1.28.67-.26,1.38-.33,2.08-.26.69.08,1.36.31,1.97.67Z"/><path d="M83.13,352.73l-10.62-.15,3.92,3.86,6.7-3.71ZM77.2,357.79l1.37,5.43,5.39-9.17-6.76,3.74ZM86.02,351.22c.14,0,.29.03.41.1.13.07.23.17.3.3.07.13.1.27.1.41,0,.14-.05.28-.14.4l-7.73,13.14c-.07.14-.18.26-.32.33-.14.07-.3.11-.46.09-.16-.02-.31-.08-.43-.19-.12-.1-.2-.24-.24-.4l-1.92-7.62-5.55-5.46c-.11-.11-.18-.25-.22-.4-.03-.15-.02-.31.04-.45.06-.14.16-.26.29-.35.13-.08.28-.13.43-.13l15.42.22Z"/></g><g style="clip-path:url(#clippath-2);"><circle cx="22.5" cy="20.5" r="12.5" style="fill:#fff;"/><circle cx="281" cy="20" r="1"/><circle cx="285" cy="20" r="1"/><circle cx="289" cy="20" r="1"/><ellipse cx="22.5" cy="20.5" rx="12.5" ry="12.51" style="fill:#024fe1;"/><circle cx="26.54" cy="16.45" r="2.19"/></g></g></svg>